<?xml version="1.0" encoding="UTF-8"?>
<svg width="28px" height="28px" viewBox="0 0 28 28" version="1.1" xmlns="http://www.w3.org/2000/svg" xmlns:xlink="http://www.w3.org/1999/xlink">
    <!-- Generator: Sketch 52.6 (67491) - http://www.bohemiancoding.com/sketch -->
    <title>uncheck</title>
    <desc>Created with Sketch.</desc>
    <g id="uncheck" stroke="none" stroke-width="1" fill="none" fill-rule="evenodd">
        <g id="Group-15">
            <path d="M28,14 C28,21.731 21.733,28 13.998,28 C6.269,28 0,21.731 0,14 C0,6.269 6.269,0 13.998,0 C21.733,0 28,6.269 28,14" id="Fill-12" fill="#DADDE1"></path>
            <path d="M19.5394397,20.7341772 C19.154058,20.7341772 18.7686763,20.5885819 18.4746221,20.2963941 L7.75318329,9.64200994 C7.16507479,9.05763432 7.16507479,8.11126493 7.75318329,7.52688931 C8.34129179,6.94251369 9.29370641,6.94251369 9.88181492,7.52688931 L20.6042573,18.1802763 C21.1913622,18.7646519 21.1913622,19.7120185 20.6042573,20.2963941 C20.3102031,20.5885819 19.9248214,20.7341772 19.5394397,20.7341772" id="Fill-13" fill="#FFFFFF"></path>
            <path d="M8.8172482,20.7341772 C8.43186652,20.7341772 8.04648484,20.5885819 7.75243059,20.2963941 C7.16532568,19.7120185 7.16532568,18.7646519 7.75243059,18.1802763 L18.474873,7.52688931 C19.0629815,6.94251369 20.0153961,6.94251369 20.6035046,7.52688931 C21.1916131,8.11126493 21.1916131,9.05763432 20.6035046,9.64200994 L9.88206582,20.2963941 C9.58801156,20.5885819 9.20262988,20.7341772 8.8172482,20.7341772" id="Fill-14" fill="#FFFFFF"></path>
        </g>
    </g>
</svg>